# xmcd
#
# Track frame offsets: 
#        150
#        16975
#        32025
#        48937
#        62957
#        79445
#        97475
#        115637
#        131437
#        149662
#        165937
#        182200
#        199587
#        215120
#        231032
#        247662
#        262037
#        278362
#        298575
#        316787
#
# Disc length: 4481 seconds
#
# Revision: 0
# Processed by: cddbd v1.5.2PL0 Copyright (c) Steve Scherf et al.
# Submitted via: ExactAudioCopy v1.0b1
#
DISCID=22117f14
DTITLE=石原裕次郎 - 太陽の軌跡~ベスト・ヒッツ40（Disc2）
DYEAR=2009
DGENRE=JPop
TTITLE0=夜霧よ今夜も有難う
TTITLE1=粋な別れ
TTITLE2=白い街
TTITLE3=港町 涙町 別れ町
TTITLE4=地獄花
TTITLE5=サヨナラ横浜
TTITLE6=恋の町札幌
TTITLE7=別れの夜明け
TTITLE8=青い滑走路
TTITLE9=ブランデーグラス
TTITLE10=昭和たずねびと
TTITLE11=みんな誰かを愛してる
TTITLE12=夜のめぐり逢い
TTITLE13=夜明けの街
TTITLE14=時間よお前は…
TTITLE15=勇者たち
TTITLE16=おれの小樽
TTITLE17=嘆きのメロディー
TTITLE18=わが人生に悔いなし
TTITLE19=北の旅人
EXTD=
EXTT0=
EXTT1=
EXTT2=
EXTT3=
EXTT4=
EXTT5=
EXTT6=
EXTT7=
EXTT8=
EXTT9=
EXTT10=
EXTT11=
EXTT12=
EXTT13=
EXTT14=
EXTT15=
EXTT16=
EXTT17=
EXTT18=
EXTT19=
PLAYORDER=
